<?xml version="1.0" encoding="utf-8"?>
<!-- Generator: Adobe Illustrator 17.0.0, SVG Export Plug-In . SVG Version: 6.00 Build 0)  -->
<!DOCTYPE svg PUBLIC "-//W3C//DTD SVG 1.1//EN" "http://www.w3.org/Graphics/SVG/1.1/DTD/svg11.dtd">
<svg version="1.1" id="Слой_1" xmlns="http://www.w3.org/2000/svg" xmlns:xlink="http://www.w3.org/1999/xlink" x="0px" y="0px"
	 width="175.748px" height="147.402px" viewBox="0 0 175.748 147.402" enable-background="new 0 0 175.748 147.402"
	 xml:space="preserve">
<g>
	<path fill="#222222" d="M23.303,76.622c0,0.891-0.27,1.708-0.81,2.451s-1.333,1.113-2.38,1.113l3.729,12.865h-7.36l-3.435-12.865
		h-0.932v12.865H5V52.674h13.494c1.668,0,2.886,0.473,3.656,1.42c0.768,0.947,1.153,2.219,1.153,3.815V76.622z M12.115,59.747V73.67
		h3.484c0.458,0,0.687-0.279,0.687-0.836V60.582c0-0.556-0.229-0.835-0.687-0.835H12.115z"/>
	<path fill="#222222" d="M33.166,88.039l-0.638,5.012h-7.164l6.428-40.377h7.605l6.428,40.377h-7.164l-0.638-5.012H33.166z
		 M33.951,81.635h3.287L35.62,67.321L33.951,81.635z"/>
	<path fill="#222222" d="M65.944,86.814c0,2.228-0.409,3.825-1.227,4.789c-0.818,0.967-2.257,1.448-4.318,1.448H47.789V52.674
		h13.936c1.407,0,2.461,0.446,3.165,1.337c0.703,0.89,1.055,2.079,1.055,3.564V86.814z M54.855,59.747v26.231h3.337
		c0.295,0,0.482-0.065,0.564-0.196c0.081-0.129,0.123-0.342,0.123-0.64V60.527c0-0.519-0.213-0.779-0.638-0.779H54.855z"/>
	<path fill="#222222" d="M74.433,93.051c-2.061,0-3.501-0.482-4.318-1.448c-0.818-0.965-1.227-2.562-1.227-4.789v-34.14h7.262
		v32.414c0,0.297,0.041,0.521,0.123,0.668c0.081,0.149,0.27,0.223,0.564,0.223h2.503c0.294,0,0.482-0.074,0.564-0.223
		c0.081-0.148,0.123-0.371,0.123-0.668V52.674h7.262v34.14c0,2.228-0.409,3.825-1.227,4.789c-0.818,0.967-2.257,1.448-4.318,1.448
		H74.433z"/>
	<path fill="#222222" d="M90.233,57.575c0-1.485,0.351-2.674,1.055-3.564c0.703-0.891,1.758-1.337,3.165-1.337h11.384v7.518h-7.802
		c-0.425,0-0.638,0.261-0.638,0.78V84.92c0,0.521,0.213,0.78,0.638,0.78h3.239V69.772h6.918v23.279H95.777
		c-2.061,0-3.501-0.482-4.318-1.448c-0.818-0.965-1.226-2.562-1.226-4.789V57.575z"/>
	<path fill="#222222" d="M116.534,93.051c-2.061,0-3.501-0.482-4.318-1.448c-0.818-0.965-1.226-2.562-1.226-4.789v-34.14h7.262
		v32.414c0,0.297,0.041,0.521,0.123,0.668c0.082,0.149,0.27,0.223,0.564,0.223h2.502c0.295,0,0.483-0.074,0.564-0.223
		c0.082-0.148,0.123-0.371,0.123-0.668V52.674h7.263v34.14c0,2.228-0.41,3.825-1.227,4.789c-0.818,0.967-2.257,1.448-4.318,1.448
		H116.534z"/>
	<path fill="#222222" d="M145.681,93.051h-7.508V82.803l-6.82-30.129h7.36l3.189,19.047l3.238-19.047h7.361l-6.821,30.129V93.051z"
		/>
	<path fill="#222222" d="M154.954,93.051v-7.518h7.655c0.556,0,0.835-0.279,0.835-0.836v-7.351c0-0.557-0.098-0.891-0.294-1.002
		c-0.197-0.111-0.54-0.168-1.031-0.168h-3.68c-0.524,0-1.023-0.046-1.497-0.139c-0.474-0.092-0.901-0.306-1.276-0.64
		c-0.377-0.334-0.671-0.798-0.884-1.393c-0.213-0.594-0.318-1.392-0.318-2.394V57.909c0-1.596,0.383-2.869,1.153-3.815
		c0.768-0.947,1.987-1.42,3.655-1.42h11.041v7.518h-8.047c-0.589,0-0.883,0.297-0.883,0.891v7.351c0,0.409,0.09,0.688,0.27,0.836
		c0.179,0.149,0.449,0.223,0.81,0.223h4.465c1.146,0,2.02,0.306,2.626,0.918s0.908,1.681,0.908,3.203v13.311
		c0,2.228-0.401,3.806-1.202,4.734c-0.802,0.928-2.216,1.392-4.245,1.392H154.954z"/>
</g>
<g>
	<g>
		<path fill="#1A2C90" d="M132.359,42.04c-9.787-14.146-26.126-23.413-44.63-23.413c-18.505,0-34.845,9.268-44.632,23.416
			l-4.431,0.001c10.253-16.29,28.393-27.115,49.063-27.115c20.672,0,38.814,10.827,49.066,27.12L132.359,42.04z"/>
		<path fill="#15095E" d="M34.348,42.049C45.004,23.629,64.92,11.236,87.73,11.236s42.726,12.393,53.382,30.813l-4.319,0
			C126.541,25.759,108.4,14.933,87.73,14.933S48.92,25.759,38.667,42.049L34.348,42.049z"/>
		<path fill="#A01385" d="M127.783,42.045c-9.24-11.991-23.744-19.717-40.053-19.717c-16.31,0-30.816,7.727-40.056,19.721l-4.577,0
			C52.884,27.9,69.225,18.631,87.73,18.631s34.846,9.269,44.633,23.418L127.783,42.045z"/>
		<path fill="#FA100C" d="M123.005,42.049c-8.585-9.82-21.205-16.023-35.274-16.023c-14.068,0-26.688,6.203-35.273,16.022l-4.782,0
			c9.24-11.993,23.745-19.72,40.055-19.72c16.309,0,30.813,7.726,40.053,19.717L123.005,42.049z"/>
		<path fill="#F87311" d="M117.901,42.049c-7.769-7.549-18.484-12.323-30.173-12.323c-11.753,0-22.408,4.7-30.189,12.323
			l-5.079-0.005c8.585-9.816,21.202-16.016,35.268-16.016c14.067,0,26.686,6.202,35.271,16.02L117.901,42.049z"/>
		<path fill="#F8E617" d="M112.353,42.049c-6.747-5.397-15.309-8.627-24.621-8.627s-17.87,3.227-24.617,8.624l-5.573,0.003
			c7.781-7.624,18.436-12.325,30.19-12.325c11.752,0,22.389,4.702,30.17,12.325L112.353,42.049z"/>
		<path fill="#FFFFFF" d="M112.353,42.049c-6.748-5.4-15.308-8.628-24.623-8.628c-9.314,0-17.874,3.228-24.622,8.627L112.353,42.049
			"/>
	</g>
	<g>
		<path fill="#1A2C90" d="M43.102,103.685c9.787,14.146,26.126,23.413,44.63,23.413c18.505,0,34.845-9.268,44.632-23.416
			l4.431-0.001c-10.253,16.29-28.393,27.115-49.063,27.115c-20.672,0-38.814-10.827-49.066-27.12L43.102,103.685z"/>
		<path fill="#15095E" d="M141.112,103.676c-10.656,18.42-30.572,30.813-53.382,30.813s-42.726-12.393-53.382-30.813l4.319,0
			c10.252,16.29,28.394,27.116,49.063,27.116s38.811-10.825,49.063-27.116L141.112,103.676z"/>
		<path fill="#A01385" d="M47.677,103.68c9.24,11.991,23.744,19.717,40.053,19.717c16.31,0,30.816-7.727,40.056-19.721l4.577,0
			c-9.787,14.149-26.127,23.418-44.633,23.418s-34.846-9.269-44.633-23.418L47.677,103.68z"/>
		<path fill="#FA100C" d="M52.455,103.676c8.585,9.82,21.205,16.023,35.274,16.023c14.068,0,26.688-6.203,35.273-16.022l4.782,0
			c-9.24,11.993-23.745,19.72-40.055,19.72c-16.309,0-30.813-7.726-40.053-19.717L52.455,103.676z"/>
		<path fill="#F87311" d="M57.559,103.676c7.769,7.549,18.484,12.323,30.173,12.323c11.753,0,22.408-4.7,30.189-12.323l5.079,0.005
			c-8.585,9.816-21.202,16.016-35.268,16.016c-14.067,0-26.686-6.202-35.271-16.02L57.559,103.676z"/>
		<path fill="#F8E617" d="M63.108,103.676c6.747,5.397,15.309,8.627,24.621,8.627s17.87-3.227,24.617-8.624l5.573-0.003
			c-7.781,7.624-18.436,12.325-30.19,12.325c-11.752,0-22.389-4.702-30.17-12.325L63.108,103.676z"/>
		<path fill="#FFFFFF" d="M63.108,103.676c6.748,5.4,15.308,8.628,24.623,8.628c9.314,0,17.874-3.228,24.622-8.627L63.108,103.676"
			/>
	</g>
</g>
</svg>
